# xmcd
#
# Track frame offsets:
#	150
#	12213
#	41951
#	58442
#	81975
#	114841
#	135632
#	166197
#	199137
#	213367
#	233355
#	266002
#	282774
#
# Disc length: 4084 seconds
#
# Revision: 0
# Processed by: cddbd v1.5.2PL0 Copyright (c) Steve Scherf et al.
# Submitted via: EasyCDDAExtractor 16.0.1.1
#
DISCID=b40ff20d
DTITLE=Danielle Nicole Band - Live At The Gospel Lounge
DYEAR=2017
DGENRE=Blues
TTITLE0=Blackbird
TTITLE1=Going To California
TTITLE2=Nobody Knows You When You Are Down And Out
TTITLE3=More Of You
TTITLE4=Angel From Montgomery
TTITLE5=Old Fashioned
TTITLE6=Spoonful
TTITLE7=Don't Think Twice, It's Alright
TTITLE8=I've Just Seen A Face
TTITLE9=I'm Not The Only One
TTITLE10=Who He Thinks You Are
TTITLE11=Jolene
TTITLE12=Bring It On Home To Me
EXTD=
EXTT0=
EXTT1=
EXTT2=
EXTT3=
EXTT4=
EXTT5=
EXTT6=
EXTT7=
EXTT8=
EXTT9=
EXTT10=
EXTT11=
EXTT12=
PLAYORDER=
